# xmcd CD database file
#
# Track frame offsets:
#	150
#	19515
#	44115
#	68862
#	92258
#	114013
#	135600
#	156905
#	176480
#	199797
#	218808
#	241552
#	264842
#	289793
#	313357
#	330844
#
# Disc length: 4725 seconds
#
# Revision: 2
# Processed by: cddbd v1.5.2PL0 Copyright (c) Steve Scherf et al.
# Submitted via: CDex 1.70beta2
#
DISCID=d3127310
DTITLE=Игорь Крутой - "... без слов..." (часть 3 )
DYEAR=2007
DGENRE=Jazz
TTITLE0=Whole World Is Love - Âåñü Ìèð - Ëþáîâü
TTITLE1=Island Of Sun - Îñòðîâ Ñîëíöà
TTITLE2=Flight For Happiness - Ïîëåò Çà Ñ÷àñòüåì
TTITLE3=Залив ангелов
TTITLE4=Autumn Sonata - Îñåííÿÿ Ñîíàòà
TTITLE5=Only For You - Òîëüêî Äëÿ Òåáÿ
TTITLE6=Metamorphoses - Ìåòàìîðôîçû
TTITLE7=A New Year Song For Sashen'ka - Íîâîãîäíÿÿ Ñàøåíüêå
TTITLE8=Evanescent - Ìèìîëåòíàÿ
TTITLE9=Mamba Of The Krutoys - Ìàìáà Êðóòûõ
TTITLE10=Whisper Of The Palm Leaves In The Warm Wind - Øåïîò Ïàëüìîâûõ Ëèñòüåâ Íà Òåïëîì Âåòðó
TTITLE11=Cocktail Of Different Woman - Êîêòåéëü Èç Ðàçíûõ Æåíùèí
TTITLE12=Elegy - Ýëåãèÿ
TTITLE13=Carnival Of The Wild World - Êàðíàâàë Áåçóìíîãî Ìèðà
TTITLE14=Soundtrack From "Exchange Of Relatives" - Ìóçûêà Èç Êèíîôèëüìà "Ðîäñòâåííûé Îáìåí"
TTITLE15=Soundtrack From "Long Way In The Dunes" - Ìóçûêà Èç Êèíîôèëüìà "Äîëãàÿ Äîðîãà Â Äþíàõ"
EXTD=YEAR: 2007
EXTT0=
EXTT1=
EXTT2=
EXTT3=
EXTT4=
EXTT5=
EXTT6=
EXTT7=
EXTT8=
EXTT9=
EXTT10=
EXTT11=
EXTT12=
EXTT13=
EXTT14=
EXTT15=
PLAYORDER=
